<svg xmlns="http://www.w3.org/2000/svg" width="1200" height="630" viewBox="0 0 1200 630">
  <rect width="1200" height="630" fill="#0A0A0A"/>

  <!-- Centered icon mark -->
  <circle cx="600" cy="240" r="110" fill="#0E0E0E"/>
  <path d="M600 130 L598 170 L602 195 L597 225 L603 245 L600 260 L597 280 L603 310 L598 335 L600 350" stroke="#C9A84C" stroke-width="8" fill="none" opacity="0.15" stroke-linecap="round"/>
  <path d="M600 130 L598 170 L602 195 L597 225 L603 245 L600 260 L597 280 L603 310 L598 335 L600 350" stroke="#C9A84C" stroke-width="3" fill="none" opacity="0.7" stroke-linecap="round"/>
  <path d="M600 130 L598 170 L602 195 L597 225 L603 245 L600 260 L597 280 L603 310 L598 335 L600 350" stroke="#FFF8E1" stroke-width="0.8" fill="none" opacity="0.5" stroke-linecap="round"/>
  <path d="M597 225 L580 216 L564 212" stroke="#C9A84C" stroke-width="1.8" fill="none" opacity="0.6" stroke-linecap="round"/>
  <path d="M603 245 L620 240 L636 244" stroke="#C9A84C" stroke-width="1.8" fill="none" opacity="0.6" stroke-linecap="round"/>
  <path d="M597 280 L578 276 L562 282" stroke="#C9A84C" stroke-width="1.4" fill="none" opacity="0.45" stroke-linecap="round"/>
  <path d="M603 310 L622 314 L638 308" stroke="#C9A84C" stroke-width="1.4" fill="none" opacity="0.45" stroke-linecap="round"/>
  <circle cx="600" cy="240" r="110" fill="none" stroke="#C9A84C" stroke-width="0.5" opacity="0.25"/>

  <!-- THE -->
  <text x="600" y="420" text-anchor="middle" font-family="Helvetica Neue, Arial, sans-serif" font-size="20" font-weight="300" letter-spacing="10" fill="#888888">THE</text>

  <!-- MIRROR -->
  <text x="600" y="480" text-anchor="middle" font-family="Georgia, Times New Roman, serif" font-size="72" font-weight="400" letter-spacing="8" fill="#E0E0E0">MIRROR</text>

  <!-- Fracture through wordmark -->
  <path d="M720 430 L718 450 L722 465 L718 480 L721 500 L717 515" stroke="#C9A84C" stroke-width="4" fill="none" opacity="0.12" stroke-linecap="round"/>
  <path d="M720 430 L718 450 L722 465 L718 480 L721 500 L717 515" stroke="#C9A84C" stroke-width="1.5" fill="none" opacity="0.5" stroke-linecap="round"/>

  <!-- Tagline -->
  <text x="600" y="530" text-anchor="middle" font-family="Helvetica Neue, Arial, sans-serif" font-size="14" font-weight="300" letter-spacing="5" fill="#555555">SEE WHAT YOU CAN'T SEE</text>

  <!-- Bottom bar -->
  <line x1="0" y1="595" x2="1200" y2="595" stroke="#1A1A1A" stroke-width="0.5"/>
  <text x="600" y="615" text-anchor="middle" font-family="Helvetica Neue, Arial, sans-serif" font-size="11" font-weight="300" letter-spacing="4" fill="#333333">MACHINEMIND  ·  PHIL MCGILL</text>
</svg>
